<?xml version="1.0" encoding="utf-8"?>
<!-- Generator: Adobe Illustrator 19.2.1, SVG Export Plug-In . SVG Version: 6.00 Build 0)  -->
<svg version="1.1" id="Ebene_1" xmlns="http://www.w3.org/2000/svg"  x="0px" y="0px"
	 viewBox="0 0 127.3 89.8" style="enable-background:new 0 0 127.3 89.8;" xml:space="preserve">
<style type="text/css">
	.st0{enable-background:new    ;}
	.st1{fill:#913333;}
	.st2{fill:none;stroke:#FFFFFF;stroke-width:2;stroke-miterlimit:10;}
	.st3{fill:#1C4B7A;}
	.st4{fill:none;stroke:#FFFFFF;stroke-width:1.5;stroke-miterlimit:10;}
	.st5{fill:none;stroke:#FFFFFF;stroke-miterlimit:10;}
</style>
<g class="st0">
	<path class="st1" d="M56.7,37.9L26.9,67.7c-0.5,0.5-1.1,0.8-1.8,0.8c-0.7,0-1.3-0.3-1.8-0.8L16.6,61c-0.5-0.5-0.8-1.1-0.8-1.8
		s0.3-1.3,0.8-1.8l21.3-21.3L16.6,14.7c-0.5-0.5-0.8-1.1-0.8-1.8c0-0.7,0.3-1.3,0.8-1.8l6.7-6.7c0.5-0.5,1.1-0.8,1.8-0.8
		c0.7,0,1.3,0.3,1.8,0.8l29.8,29.8c0.5,0.5,0.8,1.1,0.8,1.8C57.5,36.8,57.2,37.4,56.7,37.9z"/>
	<path class="st1" d="M110.7,14.7L89.4,36.1l21.3,21.3c0.5,0.5,0.8,1.1,0.8,1.8s-0.3,1.3-0.8,1.8l-6.7,6.7c-0.5,0.5-1.1,0.8-1.8,0.8
		c-0.7,0-1.3-0.3-1.8-0.8L70.6,37.9c-0.5-0.5-0.8-1.1-0.8-1.8c0-0.7,0.3-1.3,0.8-1.8l29.8-29.8c0.5-0.5,1.1-0.8,1.8-0.8
		c0.7,0,1.3,0.3,1.8,0.8l6.7,6.7c0.5,0.5,0.8,1.1,0.8,1.8C111.5,13.6,111.2,14.2,110.7,14.7z"/>
</g>
<g class="st0">
	<path class="st2" d="M56.7,37.9L26.9,67.7c-0.5,0.5-1.1,0.8-1.8,0.8c-0.7,0-1.3-0.3-1.8-0.8L16.6,61c-0.5-0.5-0.8-1.1-0.8-1.8
		s0.3-1.3,0.8-1.8l21.3-21.3L16.6,14.7c-0.5-0.5-0.8-1.1-0.8-1.8c0-0.7,0.3-1.3,0.8-1.8l6.7-6.7c0.5-0.5,1.1-0.8,1.8-0.8
		c0.7,0,1.3,0.3,1.8,0.8l29.8,29.8c0.5,0.5,0.8,1.1,0.8,1.8C57.5,36.8,57.2,37.4,56.7,37.9z"/>
	<path class="st2" d="M110.7,14.7L89.4,36.1l21.3,21.3c0.5,0.5,0.8,1.1,0.8,1.8s-0.3,1.3-0.8,1.8l-6.7,6.7c-0.5,0.5-1.1,0.8-1.8,0.8
		c-0.7,0-1.3-0.3-1.8-0.8L70.6,37.9c-0.5-0.5-0.8-1.1-0.8-1.8c0-0.7,0.3-1.3,0.8-1.8l29.8-29.8c0.5-0.5,1.1-0.8,1.8-0.8
		c0.7,0,1.3,0.3,1.8,0.8l6.7,6.7c0.5,0.5,0.8,1.1,0.8,1.8C111.5,13.6,111.2,14.2,110.7,14.7z"/>
</g>
<g class="st0">
	<path class="st3" d="M40.6,49.8c-4.2,4.1-9.3,6.1-15.4,6.1c-6.1,0-11.3-2-15.4-6.1c-4.2-4.1-6.3-9.2-6.3-15.2
		c0-6.1,2.1-11.2,6.3-15.2c4.2-4.1,9.3-6.1,15.4-6.1c6.1,0,11.3,2,15.4,6.1c4.2,4.1,6.3,9.2,6.3,15.2C46.9,40.7,44.8,45.8,40.6,49.8
		z M37.5,34.6c0-3.7-1.2-6.8-3.6-9.4c-2.4-2.6-5.3-3.9-8.7-3.9c-3.5,0-6.4,1.3-8.7,3.9c-2.4,2.6-3.6,5.7-3.6,9.4s1.2,6.8,3.6,9.4
		c2.4,2.6,5.3,3.9,8.7,3.9c3.5,0,6.4-1.3,8.7-3.9C36.3,41.5,37.5,38.3,37.5,34.6z"/>
	<path class="st3" d="M73.7,47.4c4.5,0,8.2-1.8,11.1-5.4l5.9,6.1C86.1,53.4,80.5,56,74.2,56c-6.4,0-11.6-2-15.7-6
		c-4.1-4-6.2-9.1-6.2-15.2c0-6.1,2.1-11.3,6.3-15.4s9.3-6.2,15.4-6.2c6.8,0,12.5,2.6,17,7.8l-5.7,6.5c-2.9-3.6-6.5-5.4-10.9-5.4
		c-3.5,0-6.4,1.1-8.9,3.4c-2.5,2.3-3.7,5.3-3.7,9.2s1.2,6.9,3.5,9.3C67.6,46.2,70.4,47.4,73.7,47.4z"/>
	<path class="st3" d="M98,55.6V14.2h9.2v33.1h17.6v8.2H98z"/>
</g>
<g class="st0">
	<path class="st4" d="M40.6,49.8c-4.2,4.1-9.3,6.1-15.4,6.1c-6.1,0-11.3-2-15.4-6.1c-4.2-4.1-6.3-9.2-6.3-15.2
		c0-6.1,2.1-11.2,6.3-15.2c4.2-4.1,9.3-6.1,15.4-6.1c6.1,0,11.3,2,15.4,6.1c4.2,4.1,6.3,9.2,6.3,15.2C46.9,40.7,44.8,45.8,40.6,49.8
		z M37.5,34.6c0-3.7-1.2-6.8-3.6-9.4c-2.4-2.6-5.3-3.9-8.7-3.9c-3.5,0-6.4,1.3-8.7,3.9c-2.4,2.6-3.6,5.7-3.6,9.4s1.2,6.8,3.6,9.4
		c2.4,2.6,5.3,3.9,8.7,3.9c3.5,0,6.4-1.3,8.7-3.9C36.3,41.5,37.5,38.3,37.5,34.6z"/>
	<path class="st4" d="M73.7,47.4c4.5,0,8.2-1.8,11.1-5.4l5.9,6.1C86.1,53.4,80.5,56,74.2,56c-6.4,0-11.6-2-15.7-6
		c-4.1-4-6.2-9.1-6.2-15.2c0-6.1,2.1-11.3,6.3-15.4s9.3-6.2,15.4-6.2c6.8,0,12.5,2.6,17,7.8l-5.7,6.5c-2.9-3.6-6.5-5.4-10.9-5.4
		c-3.5,0-6.4,1.1-8.9,3.4c-2.5,2.3-3.7,5.3-3.7,9.2s1.2,6.9,3.5,9.3C67.6,46.2,70.4,47.4,73.7,47.4z"/>
	<path class="st4" d="M98,55.6V14.2h9.2v33.1h17.6v8.2H98z"/>
</g>
<g class="st0">
	<path class="st3" d="M87.3,67.4v-3.6h9.8V76c0,2.2-0.6,3.9-1.7,5c-1.2,1.1-2.6,1.7-4.5,1.7c-2.3,0-4.2-0.9-5.9-2.6l2.2-3
		c1.1,1.2,2.3,1.8,3.6,1.8c0.6,0,1.1-0.2,1.5-0.7c0.4-0.5,0.6-1.1,0.6-2.1v-8.8H87.3z"/>
	<path class="st3" d="M105.9,67.5c-0.4,0.3-0.6,0.8-0.6,1.3c0,0.5,0.2,1,0.7,1.3c0.5,0.3,1.6,0.7,3.4,1.1c1.8,0.4,3.2,1.1,4.2,2
		c1,0.9,1.5,2.2,1.5,3.8c0,1.7-0.6,3.1-1.9,4.1c-1.3,1-2.9,1.6-5,1.6c-3,0-5.7-1.1-8-3.3l2.5-3.1c2,1.8,3.9,2.7,5.6,2.7
		c0.8,0,1.4-0.2,1.8-0.5s0.7-0.8,0.7-1.3c0-0.6-0.2-1-0.7-1.3c-0.5-0.3-1.4-0.7-2.8-1c-2.2-0.5-3.8-1.2-4.8-2s-1.5-2.1-1.5-3.9
		c0-1.8,0.6-3.2,1.9-4.1s2.9-1.5,4.8-1.5c1.3,0,2.5,0.2,3.8,0.6c1.3,0.4,2.3,1,3.3,1.8l-2.1,3.1c-1.6-1.2-3.3-1.9-5.1-1.9
		C106.9,67,106.3,67.2,105.9,67.5z"/>
</g>
<g class="st0">
	<path class="st5" d="M87.3,67.4v-3.6h9.8V76c0,2.2-0.6,3.9-1.7,5c-1.2,1.1-2.6,1.7-4.5,1.7c-2.3,0-4.2-0.9-5.9-2.6l2.2-3
		c1.1,1.2,2.3,1.8,3.6,1.8c0.6,0,1.1-0.2,1.5-0.7c0.4-0.5,0.6-1.1,0.6-2.1v-8.8H87.3z"/>
	<path class="st5" d="M105.9,67.5c-0.4,0.3-0.6,0.8-0.6,1.3c0,0.5,0.2,1,0.7,1.3c0.5,0.3,1.6,0.7,3.4,1.1c1.8,0.4,3.2,1.1,4.2,2
		c1,0.9,1.5,2.2,1.5,3.8c0,1.7-0.6,3.1-1.9,4.1c-1.3,1-2.9,1.6-5,1.6c-3,0-5.7-1.1-8-3.3l2.5-3.1c2,1.8,3.9,2.7,5.6,2.7
		c0.8,0,1.4-0.2,1.8-0.5s0.7-0.8,0.7-1.3c0-0.6-0.2-1-0.7-1.3c-0.5-0.3-1.4-0.7-2.8-1c-2.2-0.5-3.8-1.2-4.8-2s-1.5-2.1-1.5-3.9
		c0-1.8,0.6-3.2,1.9-4.1s2.9-1.5,4.8-1.5c1.3,0,2.5,0.2,3.8,0.6c1.3,0.4,2.3,1,3.3,1.8l-2.1,3.1c-1.6-1.2-3.3-1.9-5.1-1.9
		C106.9,67,106.3,67.2,105.9,67.5z"/>
</g>
</svg>
