<svg id="Ebene_1" data-name="Ebene 1" xmlns="http://www.w3.org/2000/svg" viewBox="0 0 93.56 36.26">
    <defs>
        <style>.cls-1{fill:#909da0;}.cls-2{fill:#fff;}.cls-3{fill:#053347;stroke:#fff;stroke-miterlimit:10;}</style>
    </defs>
    <title>logo</title>
    <rect class="cls-1" x="0.03" y="25.13" width="93" height="11.14"/>
    <path class="cls-2"
          d="M45.62,30.69a1.91,1.91,0,0,1,1.92-1.89h6a1.92,1.92,0,0,1,1.58.83,1.87,1.87,0,0,1,.33,1.06,1.91,1.91,0,0,1-1.91,1.9s-.93,0-1.29,0a4.58,4.58,0,0,1-1.6,1.78h3a3.7,3.7,0,0,0,3.7-3.68h0a3.66,3.66,0,0,0-.16-1.05A3.71,3.71,0,0,0,53.66,27h-6.2a3.69,3.69,0,0,0-3.69,3.67h0a3.67,3.67,0,0,0,.15,1.06h2A1.85,1.85,0,0,1,45.62,30.69Z"/>
    <path class="cls-2"
          d="M49.84,30.69a1.91,1.91,0,0,1-1.91,1.9h-6a1.91,1.91,0,0,1-1.58-.83A1.88,1.88,0,0,1,40,30.69a1.91,1.91,0,0,1,1.91-1.89s.93,0,1.28,0A4.65,4.65,0,0,1,44.78,27h-3a3.69,3.69,0,0,0-3.69,3.67h0a3.36,3.36,0,0,0,.16,1.06,3.69,3.69,0,0,0,3.53,2.62H48a3.7,3.7,0,0,0,3.69-3.68h0a3.34,3.34,0,0,0-.16-1.05h-2A1.91,1.91,0,0,1,49.84,30.69Z"/>
    <path class="cls-3"
          d="M12.49.94a11.44,11.44,0,0,1,8.39,3.53,11.74,11.74,0,0,1,3.51,8.61,11.6,11.6,0,0,1-3.46,8.51,11.39,11.39,0,0,1-8.41,3.49,11.4,11.4,0,0,1-8.6-3.58A11.88,11.88,0,0,1,.5,13,12,12,0,0,1,12.49.94Zm0,4.28A7.22,7.22,0,0,0,7.08,7.44a7.72,7.72,0,0,0-2.17,5.64,7.36,7.36,0,0,0,2.73,6,7.49,7.49,0,0,0,4.88,1.73,7.13,7.13,0,0,0,5.31-2.25A7.63,7.63,0,0,0,20,13.05a7.7,7.7,0,0,0-2.21-5.56A7.21,7.21,0,0,0,12.45,5.22Z"/>
    <path class="cls-3"
          d="M48.64,5.55,45.58,8.47a9.46,9.46,0,0,0-7-3.3A7.7,7.7,0,0,0,30.75,13a8.17,8.17,0,0,0,1,4.08,7.23,7.23,0,0,0,2.82,2.8,8.21,8.21,0,0,0,4.06,1,8.35,8.35,0,0,0,3.49-.72,12.37,12.37,0,0,0,3.46-2.58l3,3.09a16.28,16.28,0,0,1-4.82,3.45,13.13,13.13,0,0,1-5.17,1,11.88,11.88,0,0,1-8.77-3.4A11.75,11.75,0,0,1,26.38,13a11.89,11.89,0,0,1,1.55-6.11,11.66,11.66,0,0,1,4.45-4.3A12.6,12.6,0,0,1,38.62.94a13.27,13.27,0,0,1,10,4.61Z"/>
    <path class="cls-3" d="M51.47,1.52h4.37V20.33h6.38V24.5H51.47Z"/>
    <path class="cls-3"
          d="M68.41,20.05a2.35,2.35,0,0,1,1.73.71,2.33,2.33,0,0,1,.72,1.72,2.46,2.46,0,1,1-4.91,0,2.33,2.33,0,0,1,.72-1.72A2.36,2.36,0,0,1,68.41,20.05Z"/>
    <path class="cls-3"
          d="M73.91,7.5h4.26V25.06a10.56,10.56,0,0,1-.47,3.62,3.72,3.72,0,0,1-1.51,1.84,4.7,4.7,0,0,1-2.49.64,10.59,10.59,0,0,1-3.18-.64V27.16a4.13,4.13,0,0,0,1.76.48,1.51,1.51,0,0,0,1.22-.48,2.89,2.89,0,0,0,.41-1.78ZM76,.5a2.66,2.66,0,0,1,2,.81,2.69,2.69,0,0,1,.8,2A2.65,2.65,0,0,1,78,5.22a2.56,2.56,0,0,1-1.9.81,2.63,2.63,0,0,1-2-.82,2.79,2.79,0,0,1-.8-2,2.61,2.61,0,0,1,.79-1.92A2.57,2.57,0,0,1,76,.5Z"/>
    <path class="cls-3"
          d="M92.75,9.88l-2.64,2.64a4.45,4.45,0,0,0-2.92-1.6,1.81,1.81,0,0,0-1.13.31.9.9,0,0,0-.4.75,1,1,0,0,0,.25.64,5.26,5.26,0,0,0,1.28.79l1.56.78a9.14,9.14,0,0,1,3.39,2.48,5,5,0,0,1,.92,3,4.9,4.9,0,0,1-1.66,3.78,6.38,6.38,0,0,1-4.46,1.52A7.09,7.09,0,0,1,81,22l2.62-2.86a6,6,0,0,0,1.76,1.42,3.86,3.86,0,0,0,1.79.53,2.14,2.14,0,0,0,1.36-.4,1.16,1.16,0,0,0,.52-.94q0-1-1.86-1.92l-1.44-.72C83,15.76,81.62,14,81.62,11.94a4.52,4.52,0,0,1,1.56-3.45,5.67,5.67,0,0,1,4-1.43,6.92,6.92,0,0,1,5.59,2.82Z"/>
</svg>